#!OML:ASF H:\Terrain\Patient Classification 1\Walking\steve\steve.ASF
:FULLY-SPECIFIED
:DEGREES
31
root 7.28995 15.6836 -25.4332 6.44467 -3.64591 -4.53044
lowerback 1.74571 3.26164 5.34098
upperback -3.01797 4.61311 1.5879
thorax -3.81215 2.16227 -1.55981
lowerneck -10.4271 -1.7904 -3.54876
upperneck 15.2516 -2.65769 4.96134
head 6.46483 -1.08508 1.94192
rclavicle 2.95288e-014 4.37326e-015
rhumerus -28.0378 0.942797 -85.9475
rradius 51.9708
rwrist -2.92305
rhand 176.392 -68.9816
rfingers 7.12502
rthumb -157.87 -40.2281
lclavicle 2.95288e-014 4.37326e-015
lhumerus -45.8715 13.8031 77.3619
lradius 12.298
lwrist -19.2734
lhand -20.1324 -17.213
lfingers 7.12502
lthumb 6.21197 12.6759
rfemur -7.59181 -2.42281 29.6298
rtibia 27.959
rfoot -13.6699 23.1576
rtoes 17.365
lfemur -39.759 6.05905 -17.1743
ltibia 47.6752
lfoot -13.5051 4.48519
ltoes -17.9553
32
root 7.30737 15.6859 -25.1973 6.50535 -3.94882 -4.90698
lowerback 1.90094 3.30692 5.80076
upperback -2.984 4.70241 1.64892
thorax -3.83044 2.19333 -1.76211
lowerneck -10.4386 -1.65936 -3.60843
upperneck 14.9173 -2.47166 5.05881
head 6.35395 -0.99315 1.99753
rclavicle -4.1633e-014 -3.02153e-014
rhumerus -27.2272 2.15168 -85.9705
rradius 53.8878
rwrist -3.49168
rhand 177.299 -68.2925
rfingers 7.12502
rthumb -156.999 -39.6448
lclavicle -4.1633e-014 -3.02153e-014
lhumerus -47.6623 16.6658 74.14
lradius 11.4145
lwrist -23.3962
lhand -19.6946 -15.9896
lfingers 7.12502
lthumb 6.63469 13.8864
rfemur -6.15068 -3.02284 29.7533
rtibia 26.9069
rfoot -14.0014 23.4786
rtoes 14.791
lfemur -39.8957 5.85719 -16.5518
ltibia 44.2435
lfoot -13.7257 4.66056
ltoes -16.0002
33
root 7.32291 15.6818 -24.9613 6.39915 -4.40119 -4.71823
lowerback 2.24995 3.33303 5.5459
upperback -2.93382 4.75123 1.64399
thorax -3.9908 2.22109 -1.65076
lowerneck -10.3013 -1.57023 -3.90122
upperneck 14.4879 -2.32529 5.28825
head 6.19302 -0.925566 2.13008
rclavicle 9.33667e-015 2.06736e-014
rhumerus -26.4195 3.56375 -85.9482
rradius 55.7461
rwrist -4.28654
rhand 176.793 -67.0541
rfingers 7.12502
rthumb -157.485 -38.3468
lclavicle 9.33667e-015 2.06736e-014
lhumerus -49.6667 18.6727 71.453
lradius 10.9809
lwrist -26.3292
lhand -18.9873 -15.3374
lfingers 7.12502
lthumb 7.31738 14.5161
rfemur -4.52437 -3.66066 29.1701
rtibia 25.7528
rfoot -13.2071 24.3754
rtoes 13.8819
lfemur -39.7314 5.59929 -16.4847
ltibia 40.685
lfoot -13.773 4.88522
ltoes -15.1341
34
root 7.33842 15.6768 -24.7213 6.50978 -5.02362 -4.61757
lowerback 2.36135 3.45694 5.39686
upperback -2.95847 4.91799 1.59618
thorax -4.076 2.30496 -1.63399
lowerneck -10.2238 -1.51965 -3.94858
upperneck 14.2732 -2.23756 5.2565
head 6.10766 -0.890713 2.13412
rclavicle -1.14301e-014 9.14409e-015
rhumerus -25.6038 4.90207 -85.9663
rradius 57.395
rwrist -4.64089
rhand 177.212 -69.2437
rfingers 7.12502
rthumb -157.082 -40.5857
lclavicle -1.14301e-014 9.14409e-015
lhumerus -51.8298 20.6523 68.3696
lradius 10.5654
lwrist -29.256
lhand -18.195 -15.4406
lfingers 7.12502
lthumb 8.08216 14.3849
rfemur -3.14973 -4.12864 28.6368
rtibia 24.574
rfoot -11.1371 25.6974
rtoes 16.5514
lfemur -39.5846 5.21221 -16.1848
ltibia 37.0544
lfoot -13.4409 5.33012
ltoes -14.9759
35
root 7.3544 15.6789 -24.4767 6.84609 -5.70427 -4.7744
lowerback 2.1815 3.67174 5.54543
upperback -3.05052 5.2004 1.55401
thorax -4.0361 2.43993 -1.76164
lowerneck -9.96469 -1.45197 -3.86349
upperneck 13.9329 -2.12718 5.08264
head 5.94776 -0.851603 2.07258
rclavicle -8.23838e-014 -2.14687e-014
rhumerus -24.966 6.13844 -85.9721
rradius 59.0543
rwrist -4.56124
rhand 177.086 -69.4751
rfingers 7.12502
rthumb -157.204 -40.8021
lclavicle -8.23838e-014 -2.14687e-014
lhumerus -53.892 22.0764 65.5171
lradius 10.1446
lwrist -31.5951
lhand -17.891 -15.4865
lfingers 7.12502
lthumb 8.37552 14.3274
rfemur -1.93649 -4.2589 28.4011
rtibia 23.2314
rfoot -9.28032 26.4888
rtoes 19.7347
lfemur -39.6443 4.69239 -15.4168
ltibia 33.4966
lfoot -12.9345 5.8478
ltoes -14.4674
36
root 7.36794 15.6786 -24.2337 7.25848 -6.33625 -5.17362
lowerback 1.92357 3.86799 5.87356
upperback -3.13921 5.46102 1.58829
thorax -3.94051 2.56138 -1.90017
lowerneck -9.76199 -1.42518 -3.79627
upperneck 13.6224 -2.07841 4.96494
head 5.81134 -0.837792 2.02695
rclavicle -5.35911e-014 -5.1684e-015
rhumerus -24.3078 7.129 -85.9657
rradius 60.5514
rwrist -4.12955
rhand 177.015 -69.1899
rfingers 7.12502
rthumb -157.272 -40.5085
lclavicle -5.35911e-014 -5.1684e-015
lhumerus -55.4131 22.0127 64.4063
lradius 10.0386
lwrist -31.595
lhand -17.9357 -15.1589
lfingers 7.12502
lthumb 8.33239 14.6567
rfemur -0.725648 -4.43916 28.4359
rtibia 21.7527
rfoot -8.29256 27.0483
rtoes 19.3156
lfemur -39.8467 3.92694 -14.1565
ltibia 30.1074
lfoot -13.1656 6.59764
ltoes -16.4597
37
root 7.38343 15.668 -23.9887 7.6255 -6.92885 -5.55939
lowerback 1.65852 4.04988 6.25526
upperback -3.15379 5.69632 1.58476
thorax -3.75442 2.67231 -2.09929
lowerneck -9.86647 -1.45951 -3.80021
upperneck 13.5295 -2.12356 4.99987
head 5.8027 -0.856593 2.03419
rclavicle 1.22315e-014 6.95746e-015
rhumerus -23.5244 7.8563 -85.9392
rradius 61.8879
rwrist -3.61284
rhand 176.912 -68.791
rfingers 7.12502
rthumb -157.37 -40.0976
lclavicle 1.22315e-014 6.95746e-015
lhumerus -56.5303 21.2885 64.2299
lradius 10.1653
lwrist -30.3591
lhand -17.7719 -14.8487
lfingers 7.12502
lthumb 8.4905 14.9606
rfemur 0.540266 -4.53964 28.4486
rtibia 20.3476
rfoot -7.04223 27.588
rtoes 18.1369
lfemur -39.914 2.9371 -12.7512
ltibia 26.8519
lfoot -14.0235 7.59451
ltoes -17.6522
